<svg xmlns="http://www.w3.org/2000/svg" viewBox="0 0 512 512"><path d="M311.283 215.438c18.4-15.659 30.075-38.98 30.075-65.04 0-47.137-38.211-85.358-85.358-85.358-47.137 0-85.358 38.221-85.358 85.358 0 26.061 11.676 49.381 30.075 65.03" fill="#f2d546"/><path d="M495.381 460.761c-21.765 0-21.765-21.076-43.53-21.076s-21.765 21.076-43.53 21.076c-21.762 0-21.762-21.076-43.524-21.076s-21.762 21.076-43.525 21.076c-21.761 0-21.761-21.076-43.524-21.076-21.761 0-21.761 21.076-43.523 21.076-21.759 0-21.759-21.076-43.517-21.076-21.761 0-21.761 21.076-43.523 21.076s-21.761-21.076-43.524-21.076c-21.761 0-21.761 21.076-43.523 21.076-21.76 0-21.76-21.076-43.52-21.076V388.44c21.76 0 21.76 21.076 43.52 21.076 21.761 0 21.761-21.076 43.523-21.076s21.761 21.076 43.524 21.076c21.761 0 21.761-21.076 43.523-21.076 21.759 0 21.759 21.076 43.517 21.076 21.761 0 21.761-21.076 43.523-21.076s21.761 21.076 43.524 21.076c21.762 0 21.762-21.076 43.525-21.076s21.762 21.076 43.524 21.076c21.765 0 21.765-21.076 43.53-21.076s21.765 21.076 43.53 21.076" fill="#77c69e"/><path d="M348.099 386.994c0 2.483-.022 4.956-.055 7.417a445.241 445.241 0 01-.832 20.112 415.855 415.855 0 01-3.836 35.345c-5.543 5.388-10.987 27.891-22.107 27.891h-87.043c-21.752 0-59.991-11.087-65.512-27.315a413.94 413.94 0 01-3.492-30.167 429.331 429.331 0 01-.998-16.952c-.2-5.2-.299-10.422-.31-15.677v-.654c0-38.549 5.233-75.879 15.023-111.312a414.065 414.065 0 0110.976-33.959c15.754-42.407 38.216-81.577 66.089-116.202a417.329 417.329 0 0149.259 77.143 404.442 404.442 0 018.116 17.462 414.085 414.085 0 0131.897 118.064 415.45 415.45 0 012.04 23.061v.011a422.92 422.92 0 01.785 25.732z" fill="#ef8d43"/><path d="M138.854 158.715h-24.936a8.315 8.315 0 010-16.63h24.936a8.315 8.315 0 010 16.63zm259.234 0h-24.937a8.315 8.315 0 01-8.315-8.315 8.315 8.315 0 018.315-8.315h24.937a8.315 8.315 0 018.315 8.315 8.313 8.313 0 01-8.315 8.315zM173.165 75.879a8.286 8.286 0 01-5.879-2.436L149.654 55.81a8.315 8.315 0 0111.759-11.759l17.633 17.633a8.315 8.315 0 01-5.881 14.195zm198.054 183.307a8.28 8.28 0 01-5.461-2.048l-20.221-17.633a8.317 8.317 0 01-.804-11.732 8.317 8.317 0 0111.732-.803l20.221 17.633a8.317 8.317 0 01-5.467 14.583zm-230.432 0a8.315 8.315 0 01-5.468-14.582l20.22-17.633a8.314 8.314 0 0111.732.803 8.315 8.315 0 01-.803 11.732l-20.22 17.633a8.286 8.286 0 01-5.461 2.047zM338.84 75.879a8.316 8.316 0 01-5.88-14.196l17.634-17.633a8.316 8.316 0 0111.759 11.76l-17.634 17.633a8.286 8.286 0 01-5.879 2.436zm-82.837-34.313a8.315 8.315 0 01-8.315-8.315V8.315a8.315 8.315 0 0116.63 0v24.936a8.315 8.315 0 01-8.315 8.315z" fill="#f2d546"/><path d="M347.312 361.251v.011s-77.009-32.717-182.091 59.016a429.331 429.331 0 01-.998-16.952c-.2-5.2-.299-10.422-.31-15.677v-.654c0-38.549 5.233-75.879 15.023-111.312 0 0 65.889 5.322 138.741-45.345a414.085 414.085 0 0127.595 107.853 415.33 415.33 0 012.04 23.06z" fill="#f7ad7c"/><path d="M249.484 460.286c-1.22-31.693-1.787-63.387-1.797-95.08-.013-31.693.555-63.387 1.774-95.08.632-15.846 1.411-31.693 2.451-47.541 1.069-15.846 2.272-31.693 4.087-47.541 1.815 15.846 3.018 31.693 4.087 47.541 1.04 15.846 1.819 31.693 2.451 47.541 1.218 31.693 1.787 63.387 1.774 95.08-.01 31.693-.578 63.387-1.797 95.08-.634 15.848-12.394 15.848-13.03 0z" fill="#dd7d3c"/><path d="M495.381 512c-21.765 0-21.765-21.076-43.53-21.076S430.086 512 408.321 512c-21.762 0-21.762-21.076-43.524-21.076S343.035 512 321.272 512c-21.761 0-21.761-21.076-43.524-21.076-21.761 0-21.761 21.076-43.523 21.076-21.759 0-21.759-21.076-43.517-21.076-21.761 0-21.761 21.076-43.523 21.076s-21.761-21.076-43.524-21.076C81.9 490.924 81.9 512 60.139 512c-21.76 0-21.76-21.076-43.52-21.076V439.68c21.76 0 21.76 21.076 43.52 21.076 21.761 0 21.761-21.076 43.523-21.076s21.761 21.076 43.524 21.076c21.761 0 21.761-21.076 43.523-21.076 21.759 0 21.759 21.076 43.517 21.076 21.761 0 21.761-21.076 43.523-21.076s21.761 21.076 43.524 21.076c21.762 0 21.762-21.076 43.525-21.076s21.762 21.076 43.524 21.076c21.765 0 21.765-21.076 43.53-21.076s21.765 21.076 43.53 21.076" fill="#89e5b9"/></svg>