<?xml version="1.0" encoding="iso-8859-1"?>
<!-- Generator: Adobe Illustrator 19.0.0, SVG Export Plug-In . SVG Version: 6.00 Build 0)  -->
<svg version="1.1" id="Layer_1" xmlns="http://www.w3.org/2000/svg" xmlns:xlink="http://www.w3.org/1999/xlink" x="0px" y="0px"
	 viewBox="0 0 512 512" style="enable-background:new 0 0 512 512;" xml:space="preserve">
<path style="fill:#F2D546;" d="M311.283,215.438c18.4-15.659,30.075-38.98,30.075-65.04c0-47.137-38.211-85.358-85.358-85.358
	c-47.137,0-85.358,38.221-85.358,85.358c0,26.061,11.676,49.381,30.075,65.03"/>
<path style="fill:#77C69E;" d="M495.381,460.761c-21.765,0-21.765-21.076-43.53-21.076c-21.765,0-21.765,21.076-43.53,21.076
	c-21.762,0-21.762-21.076-43.524-21.076c-21.762,0-21.762,21.076-43.525,21.076c-21.761,0-21.761-21.076-43.524-21.076
	c-21.761,0-21.761,21.076-43.523,21.076c-21.759,0-21.759-21.076-43.517-21.076c-21.761,0-21.761,21.076-43.523,21.076
	s-21.761-21.076-43.524-21.076c-21.761,0-21.761,21.076-43.523,21.076c-21.76,0-21.76-21.076-43.52-21.076V388.44
	c21.76,0,21.76,21.076,43.52,21.076c21.761,0,21.761-21.076,43.523-21.076s21.761,21.076,43.524,21.076
	c21.761,0,21.761-21.076,43.523-21.076c21.759,0,21.759,21.076,43.517,21.076c21.761,0,21.761-21.076,43.523-21.076
	s21.761,21.076,43.524,21.076c21.762,0,21.762-21.076,43.525-21.076s21.762,21.076,43.524,21.076
	c21.765,0,21.765-21.076,43.53-21.076c21.765,0,21.765,21.076,43.53,21.076"/>
<path style="fill:#EF8D43;" d="M348.099,386.994c0,2.483-0.022,4.956-0.055,7.417c-0.122,6.752-0.41,13.448-0.832,20.112
	c-0.787,11.93-2.062,23.715-3.836,35.345c-5.543,5.388-10.987,27.891-22.107,27.891c-21.752,0-65.28,0-87.043,0
	c-21.752,0-59.991-11.087-65.512-27.315c-1.519-9.934-2.694-20.001-3.492-30.167c-0.443-5.621-0.776-11.275-0.998-16.952
	c-0.2-5.2-0.299-10.422-0.31-15.677v-0.654c0-38.549,5.233-75.879,15.023-111.312c3.182-11.53,6.852-22.85,10.976-33.959
	c15.754-42.407,38.216-81.577,66.089-116.202c19.103,23.715,35.655,49.569,49.259,77.143c2.838,5.743,5.543,11.564,8.116,17.462
	c1.475,3.382,2.916,6.785,4.302,10.211c13.77,33.948,23.205,70.136,27.595,107.853c0.887,7.628,1.574,15.311,2.04,23.061
	c0,0.011,0,0.011,0,0.011C347.833,369.776,348.099,378.358,348.099,386.994z"/>
<g>
	<path style="fill:#F2D546;" d="M138.854,158.715h-24.936c-4.592,0-8.315-3.723-8.315-8.315c0-4.592,3.723-8.315,8.315-8.315h24.936
		c4.592,0,8.315,3.723,8.315,8.315C147.169,154.992,143.446,158.715,138.854,158.715z"/>
	<path style="fill:#F2D546;" d="M398.088,158.715h-24.937c-4.593,0-8.315-3.723-8.315-8.315c0-4.592,3.722-8.315,8.315-8.315h24.937
		c4.593,0,8.315,3.723,8.315,8.315C406.404,154.992,402.682,158.715,398.088,158.715z"/>
	<path style="fill:#F2D546;" d="M173.165,75.879c-2.128,0-4.256-0.812-5.879-2.436L149.654,55.81c-3.247-3.247-3.247-8.511,0-11.759
		c3.247-3.247,8.512-3.247,11.759,0l17.633,17.633c3.247,3.247,3.247,8.511,0,11.759C177.422,75.067,175.294,75.879,173.165,75.879z
		"/>
	<path style="fill:#F2D546;" d="M371.219,259.186c-1.939,0-3.886-0.674-5.461-2.048l-20.221-17.633
		c-3.461-3.018-3.821-8.271-0.804-11.732c3.019-3.462,8.273-3.819,11.732-0.803l20.221,17.633c3.461,3.018,3.821,8.271,0.804,11.732
		C375.846,258.22,373.539,259.186,371.219,259.186z"/>
	<path style="fill:#F2D546;" d="M140.787,259.186c-2.319,0-4.627-0.965-6.271-2.85c-3.018-3.461-2.659-8.713,0.803-11.732
		l20.22-17.633c3.461-3.018,8.713-2.66,11.732,0.803c3.018,3.461,2.659,8.713-0.803,11.732l-20.22,17.633
		C144.673,258.512,142.725,259.186,140.787,259.186z"/>
	<path style="fill:#F2D546;" d="M338.84,75.879c-2.129,0-4.256-0.812-5.88-2.436c-3.247-3.247-3.247-8.513,0-11.76l17.634-17.633
		c3.247-3.247,8.513-3.246,11.759,0c3.247,3.247,3.247,8.513,0,11.76l-17.634,17.633C343.096,75.067,340.968,75.879,338.84,75.879z"
		/>
	<path style="fill:#F2D546;" d="M256.003,41.566c-4.592,0-8.315-3.723-8.315-8.315V8.315c0-4.592,3.723-8.315,8.315-8.315
		c4.592,0,8.315,3.723,8.315,8.315v24.936C264.317,37.844,260.596,41.566,256.003,41.566z"/>
</g>
<path style="fill:#F7AD7C;" d="M347.312,361.251c0,0.011,0,0.011,0,0.011s-77.009-32.717-182.091,59.016
	c-0.443-5.621-0.776-11.275-0.998-16.952c-0.2-5.2-0.299-10.422-0.31-15.677v-0.654c0-38.549,5.233-75.879,15.023-111.312
	c0,0,65.889,5.322,138.741-45.345c13.77,33.948,23.205,70.136,27.595,107.853C346.159,345.818,346.846,353.501,347.312,361.251z"/>
<path style="fill:#DD7D3C;" d="M249.484,460.286c-1.22-31.693-1.787-63.387-1.797-95.08c-0.013-31.693,0.555-63.387,1.774-95.08
	c0.632-15.846,1.411-31.693,2.451-47.541c1.069-15.846,2.272-31.693,4.087-47.541c1.815,15.846,3.018,31.693,4.087,47.541
	c1.04,15.846,1.819,31.693,2.451,47.541c1.218,31.693,1.787,63.387,1.774,95.08c-0.01,31.693-0.578,63.387-1.797,95.08
	C261.88,476.134,250.12,476.134,249.484,460.286z"/>
<path style="fill:#89E5B9;" d="M495.381,512c-21.765,0-21.765-21.076-43.53-21.076c-21.765,0-21.765,21.076-43.53,21.076
	c-21.762,0-21.762-21.076-43.524-21.076c-21.762,0-21.762,21.076-43.525,21.076c-21.761,0-21.761-21.076-43.524-21.076
	c-21.761,0-21.761,21.076-43.523,21.076c-21.759,0-21.759-21.076-43.517-21.076c-21.761,0-21.761,21.076-43.523,21.076
	s-21.761-21.076-43.524-21.076C81.9,490.924,81.9,512,60.139,512c-21.76,0-21.76-21.076-43.52-21.076V439.68
	c21.76,0,21.76,21.076,43.52,21.076c21.761,0,21.761-21.076,43.523-21.076s21.761,21.076,43.524,21.076
	c21.761,0,21.761-21.076,43.523-21.076c21.759,0,21.759,21.076,43.517,21.076c21.761,0,21.761-21.076,43.523-21.076
	s21.761,21.076,43.524,21.076c21.762,0,21.762-21.076,43.525-21.076s21.762,21.076,43.524,21.076
	c21.765,0,21.765-21.076,43.53-21.076c21.765,0,21.765,21.076,43.53,21.076"/>
<g>
</g>
<g>
</g>
<g>
</g>
<g>
</g>
<g>
</g>
<g>
</g>
<g>
</g>
<g>
</g>
<g>
</g>
<g>
</g>
<g>
</g>
<g>
</g>
<g>
</g>
<g>
</g>
<g>
</g>
</svg>
